<svg t="1660975076092" class="icon" viewBox="0 0 1024 1024" version="1.1" xmlns="http://www.w3.org/2000/svg" p-id="10654" width="200" height="200"><path d="M546 736h202a4 4 0 0 0 4-4v-64a4 4 0 0 0-4-4H546a4 4 0 0 0-4 4v64a4 4 0 0 0 4 4z m310-608H168a40 40 0 0 0-40 40v688a40 40 0 0 0 40 40h688a40 40 0 0 0 40-40V168a40 40 0 0 0-40-40z m-32 696H200V200h624zM273.2 690.2l45.2 45.2a4 4 0 0 0 5.7 0l212.1-212.1a16.1 16.1 0 0 0 0-22.6L324.1 288.6a4 4 0 0 0-5.7 0l-45.2 45.2a4 4 0 0 0 0 5.7L445.7 512 273.2 684.5a4 4 0 0 0 0 5.7z" p-id="10655" fill="#ffffff"></path></svg>